<svg width="152" height="38" viewBox="0 0 152 38" fill="none" xmlns="http://www.w3.org/2000/svg">
<g clip-path="url(#clip0_1_2)">
<path d="M25.5 3.8147e-06V8.33334H10.4583V14.9375H21.5625V22.875H10.4583V37.6042H0V3.8147e-06H25.5Z" fill="#043127"/>
<path d="M40.3753 3.8147e-06V37.6042H29.917V3.8147e-06H40.3753Z" fill="#043127"/>
<path d="M81.1754 37.6042H70.717L56.8004 16.5833V37.6042H46.342V3.8147e-06H56.8004L70.717 21.2917V3.8147e-06H81.1754V37.6042Z" fill="#043127"/>
<path d="M115.471 3.8147e-06V8.33334H105.43V37.6042H94.9922V8.33334H85.0755V3.8147e-06H115.471Z" fill="#043127"/>
<path d="M129.598 3.8147e-06V21.8125C129.598 23.8438 130.067 25.4115 131.015 26.5208C131.958 27.6198 133.39 28.1667 135.306 28.1667C137.223 28.1667 138.666 27.6146 139.64 26.5C140.624 25.375 141.119 23.8125 141.119 21.8125V3.8147e-06H151.577V21.8125C151.577 25.2708 150.848 28.2188 149.39 30.6458C147.931 33.0781 145.942 34.9115 143.431 36.1458C140.931 37.3698 138.15 37.9792 135.098 37.9792C132.025 37.9792 129.291 37.3698 126.89 36.1458C124.499 34.9115 122.619 33.0833 121.244 30.6667C119.879 28.25 119.202 25.3021 119.202 21.8125V3.8147e-06H129.598Z" fill="#043127"/>
</g>
<defs>
<clipPath id="clip0_1_2">
<rect width="152" height="38" fill="white"/>
</clipPath>
</defs>
</svg>
